<?xml version="1.0" standalone="no"?>
<!DOCTYPE svg PUBLIC "-//W3C//DTD SVG 20010904//EN"
 "http://www.w3.org/TR/2001/REC-SVG-20010904/DTD/svg10.dtd">
<svg version="1.0" xmlns="http://www.w3.org/2000/svg"
 width="512.000000pt" height="512.000000pt" viewBox="0 0 512.000000 512.000000"
 preserveAspectRatio="xMidYMid meet">
<metadata>
Created by potrace 1.11, written by Peter Selinger 2001-2013
</metadata>
<g transform="translate(0.000000,512.000000) scale(0.100000,-0.100000)"
fill="#000000" stroke="none">
<path d="M0 2560 l0 -2560 845 0 845 0 0 2560 0 2560 -845 0 -845 0 0 -2560z
m1550 240 l0 -2050 -272 2 -273 3 -3 2048 -2 2047 275 0 275 0 0 -2050z"/>
<path d="M1720 2560 l0 -2560 840 0 840 0 0 344 0 343 -86 2 c-205 4 -436 74
-609 183 -77 48 -194 149 -258 221 -227 255 -326 535 -315 896 11 342 122 598
365 836 223 220 537 355 824 355 l79 0 0 970 0 970 -840 0 -840 0 0 -2560z"/>
<path d="M3430 4151 l0 -968 88 -7 c341 -26 674 -210 885 -492 229 -305 303
-705 202 -1091 -83 -314 -312 -599 -615 -762 -136 -73 -386 -141 -517 -141
l-43 0 0 -345 0 -345 845 0 845 0 0 2560 0 2560 -845 0 -845 0 0 -969z"/>
<path d="M3283 2679 c-151 -18 -270 -75 -379 -183 -154 -154 -225 -361 -211
-610 8 -140 31 -235 84 -345 100 -209 296 -339 539 -358 l84 -6 0 757 0 756
-22 -1 c-13 -1 -55 -5 -95 -10z"/>
<path d="M3430 1932 l0 -755 61 7 c84 10 182 41 259 84 77 42 181 145 229 225
77 131 120 334 106 511 -16 207 -82 363 -204 486 -112 113 -226 170 -380 188
l-71 8 0 -754z"/>
</g>
</svg>
